<?xml version="1.0" standalone="no"?>
<!DOCTYPE svg PUBLIC "-//W3C//DTD SVG 20010904//EN"
 "http://www.w3.org/TR/2001/REC-SVG-20010904/DTD/svg10.dtd">
<svg version="1.0" xmlns="http://www.w3.org/2000/svg"
 width="100.000000pt" height="100.000000pt" viewBox="0 0 100.000000 100.000000"
 preserveAspectRatio="xMidYMid meet">

<g transform="translate(0.000000,100.000000) scale(0.100000,-0.100000)"
fill="#000000" stroke="none">
<path d="M180 685 l0 -225 50 0 c43 0 52 -3 59 -22 6 -16 4 -25 -5 -31 -8 -4
-14 -13 -14 -19 0 -7 4 -7 14 1 10 9 26 5 67 -16 30 -15 58 -32 62 -38 5 -6 7
-3 4 7 -3 9 1 19 9 22 8 3 14 11 14 18 0 9 -3 9 -12 0 -31 -31 -118 8 -131 58
-5 18 0 20 44 20 40 0 55 -5 75 -25 14 -14 28 -25 32 -25 4 0 13 -19 19 -43
13 -48 43 -91 76 -109 12 -6 5 4 -15 24 -25 23 -41 51 -50 83 -10 38 -22 55
-55 79 -23 17 -46 40 -53 51 -10 19 -10 19 -6 -2 4 -22 2 -23 -85 -23 l-89 0
0 215 0 215 175 0 175 0 0 -190 0 -190 -40 20 c-21 11 -47 20 -57 20 -10 -1
-1 -7 20 -14 21 -8 57 -26 80 -41 30 -20 37 -22 25 -8 -11 12 -18 36 -18 62 0
38 2 41 19 31 11 -5 73 -60 138 -122 113 -107 114 -108 28 -19 -49 51 -111
109 -137 129 l-48 36 0 148 0 148 -185 0 -185 0 0 -225z"/>
<path d="M283 783 c26 -2 68 -2 95 0 26 2 4 3 -48 3 -52 0 -74 -1 -47 -3z"/>
<path d="M298 723 c34 -2 90 -2 125 0 34 2 6 3 -63 3 -69 0 -97 -1 -62 -3z"/>
<path d="M283 663 c26 -2 68 -2 95 0 26 2 4 3 -48 3 -52 0 -74 -1 -47 -3z"/>
<path d="M298 603 c34 -2 90 -2 125 0 34 2 6 3 -63 3 -69 0 -97 -1 -62 -3z"/>
<path d="M370 545 c-7 -9 -10 -18 -6 -22 3 -3 6 -1 6 5 0 5 12 15 28 20 23 9
24 11 6 11 -12 1 -27 -6 -34 -14z"/>
<path d="M266 350 c5 -24 19 -39 84 -88 16 -13 57 -62 90 -110 33 -47 60 -81
60 -76 0 5 -30 49 -65 99 l-65 90 25 18 c14 10 25 23 25 28 0 5 -9 0 -20 -11
-24 -24 -30 -24 -75 -6 -22 9 -40 27 -50 48 -11 24 -13 26 -9 8z"/>
</g>
</svg>
